<svg width="512" height="512" viewBox="0 0 512 512" fill="none" xmlns="http://www.w3.org/2000/svg">
<g clip-path="url(#clip0_0_3)">
<path d="M404.2 224H362L317.7 194C292.8 177 263.4 168 233.3 168H128L5 205.5V219H16V262H5V296L22.5 319H495V295.2L507 267.9L483.9 250.6C460.9 233.3 433 224 404.2 224Z" fill="#DB3328"/>
<path d="M99 182H82.1L5 205.5L25.8 206L99 182Z" fill="#485143"/>
<path d="M296.6 182H285.4L346.8 224H362L317.7 193.9C311 189.4 303.9 185 296.6 182Z" fill="#747E6C"/>
<path d="M495 319H22.5L5 296H495V319ZM37.7 262H16V219H37.7L48.2 243.5L37.7 262Z" fill="#B5100B"/>
<path d="M331 222H256L88.5 196.2L137 182H226.8C258.1 182 288.7 191.8 314.2 210L331 222Z" fill="#485143"/>
<path d="M357 295.1L194.1 285.4L163.1 246.4L195.5 232L354 256C354 261.3 349.4 265.5 344.1 264.9L207.4 249.4L195.3 255.4L212.2 271.4L349.4 286.6C353.7 287 357 290.7 357 295.1Z" fill="#B5100B"/>
<path d="M476 263H507V273H476V263Z" fill="#EBEADF"/>
<path d="M93.1 344C119.996 344 141.8 322.196 141.8 295.3C141.8 268.404 119.996 246.6 93.1 246.6C66.2037 246.6 44.4 268.404 44.4 295.3C44.4 322.196 66.2037 344 93.1 344Z" fill="#323D2C"/>
<path d="M95.3 246.6C91.3 246.4 87.3 246.7 83.5 247.5C79.2 248.3 80 254.6 84.3 254.6H85C111.7 254.6 133.7 276.6 133.7 303.3V304C133.6 308.3 139.9 309.1 140.8 304.8C141.5 301 141.9 297.1 141.7 293C140.6 268 120.3 247.7 95.3 246.6Z" fill="#485143"/>
<path d="M114.9 318.9C90.6 317.4 71 297.7 69.4 273.4V272.8C68.9 263.9 57.5 260.8 52.5 268.2C46.9 276.5 43.9 286.7 44.4 297.5C45.6 322.4 65.8 342.7 90.8 343.9C101.7 344.4 111.8 341.3 120.1 335.8C127.5 330.8 124.4 319.4 115.5 318.9H114.9Z" fill="#1C2617"/>
<path d="M93.1 319.2C106.3 319.2 117 308.5 117 295.3C117 282.1 106.3 271.4 93.1 271.4C79.9004 271.4 69.2 282.1 69.2 295.3C69.2 308.5 79.9004 319.2 93.1 319.2Z" fill="#747E6C"/>
<path d="M95 271.4C93.7 271.3 92.4 271.3 91.1 271.4C88.6 271.6 88.7 275.2 91.2 275.4H91.5C102.7 276.5 111.8 285.6 112.9 296.8V297.1C113.1 299.6 116.7 299.6 116.9 297.2C117 295.9 117 294.6 116.9 293.3C116 281.7 106.6 272.3 95 271.4Z" fill="#C4C1AB"/>
<path d="M101.3 308C90.3 306.8 81.5 298 80.3 287V286.7C79.8 282 73.5 280.8 71.4 285C69.7 288.6 68.9 292.7 69.2 297C70 308.7 79.6 318.3 91.3 319.1C95.6 319.4 99.7 318.6 103.2 316.9C107.5 314.9 106.2 308.5 101.5 308H101.3Z" fill="#485143"/>
<path d="M22 219H29.7V262H22V219Z" fill="#E67368"/>
<path d="M417.3 344C444.196 344 466 322.196 466 295.3C466 268.404 444.196 246.6 417.3 246.6C390.404 246.6 368.6 268.404 368.6 295.3C368.6 322.196 390.404 344 417.3 344Z" fill="#323D2C"/>
<path d="M439.1 318.9C414.8 317.4 395.2 297.7 393.6 273.4V272.8C393.1 263.9 381.7 260.8 376.7 268.2C371.1 276.5 368.1 286.7 368.6 297.5C369.8 322.4 390 342.7 415 343.9C425.9 344.4 436 341.3 444.3 335.8C451.7 330.8 448.6 319.4 439.7 318.9H439.1Z" fill="#1C2617"/>
<path d="M417.1 319.2C430.3 319.2 441 308.5 441 295.3C441 282.1 430.3 271.4 417.1 271.4C403.9 271.4 393.2 282.1 393.2 295.3C393.2 308.5 403.9 319.2 417.1 319.2Z" fill="#747E6C"/>
<path d="M419.3 246.6C415.3 246.4 411.3 246.7 407.5 247.5C403.2 248.3 404 254.6 408.3 254.6H409C435.7 254.6 457.7 276.6 457.7 303.3V304C457.6 308.3 463.9 309.1 464.8 304.8C465.5 301 465.9 297.1 465.7 293C464.6 268 444.3 247.7 419.3 246.6Z" fill="#485143"/>
<path d="M419 271.4C417.7 271.3 416.4 271.3 415.1 271.4C412.6 271.6 412.7 275.2 415.2 275.4H415.5C426.7 276.5 435.8 285.6 436.9 296.8V297.1C437.1 299.6 440.7 299.6 440.9 297.2C441 295.9 441 294.6 440.9 293.3C440 281.7 430.6 272.3 419 271.4Z" fill="#C4C1AB"/>
<path d="M425.3 308C414.3 306.8 405.5 298 404.3 287V286.7C403.8 282 397.5 280.8 395.4 285C393.7 288.6 392.9 292.7 393.2 297C394 308.7 403.6 318.3 415.3 319.1C419.6 319.4 423.7 318.6 427.2 316.9C431.5 314.9 430.2 308.5 425.5 308H425.3Z" fill="#485143"/>
<path d="M256 230H331L362 232H449.5C435.1 227 419.7 224 404.2 224H362L331 222H256L88.4 196.2L5 205.5V214.1L88.5 207.3L256 230Z" fill="#E67368"/>
<mask id="mask0_0_3" style="mask-type:luminance" maskUnits="userSpaceOnUse" x="88" y="182" width="243" height="40">
<path d="M331 222H256L88.5 196.2L137 182H226.8C258.1 182 288.7 191.8 314.2 210L331 222Z" fill="white"/>
</mask>
<g mask="url(#mask0_0_3)">
<path d="M208.6 231.3H190.7L132.7 173.7H150.6L208.6 231.3ZM262.7 231.3H225.3L167.3 173.7H204.6L262.7 231.3Z" fill="#747E6C"/>
</g>
<path d="M195.2 212.7L174.8 209.5V182H195.2V212.7Z" fill="#323D2C"/>
<path d="M417.3 349C387.7 349 363.6 324.9 363.6 295.3C363.6 265.7 387.7 241.6 417.3 241.6C446.9 241.6 471 265.7 471 295.3C471 324.9 446.9 349 417.3 349ZM417.3 251.5C393.2 251.5 373.6 271.1 373.6 295.2C373.6 319.3 393.2 338.9 417.3 338.9C441.4 338.9 461 319.3 461 295.2C461 271.1 441.4 251.5 417.3 251.5ZM93.1 349C63.5 349 39.4 324.9 39.4 295.3C39.4 265.7 63.5 241.6 93.1 241.6C122.7 241.6 146.8 265.7 146.8 295.3C146.8 324.9 122.7 349 93.1 349ZM93.1 251.5C69 251.5 49.4 271.1 49.4 295.2C49.4 319.3 69 339 93.1 339C117.2 339 136.8 319.4 136.8 295.3C136.8 271.2 117.2 251.5 93.1 251.5Z" fill="#10121B"/>
<path d="M93.1 324.2C77.2 324.2 64.2 311.2 64.2 295.3C64.2 279.4 77.2 266.4 93.1 266.4C109 266.4 122 279.4 122 295.3C122 311.2 109 324.2 93.1 324.2ZM93.1 276.3C82.7 276.3 74.2 284.8 74.2 295.2C74.2 305.6 82.7 314.1 93.1 314.1C103.5 314.1 112 305.6 112 295.2C112 284.8 103.5 276.3 93.1 276.3ZM417.1 324.2C401.2 324.2 388.2 311.2 388.2 295.3C388.2 279.4 401.2 266.4 417.1 266.4C433 266.4 446 279.4 446 295.3C446 311.2 433 324.2 417.1 324.2ZM417.1 276.3C406.7 276.3 398.2 284.8 398.2 295.2C398.2 305.6 406.7 314.1 417.1 314.1C427.5 314.1 436 305.6 436 295.2C436 284.8 427.5 276.3 417.1 276.3Z" fill="#10121B"/>
<path d="M495 324H459.7V314H490V295.2C490 294.5 490.1 293.8 490.4 293.2L500.8 269.5L480.9 254.6C458.9 238.1 431.7 229 404.2 229H362C361 229 360 228.7 359.2 228.1L314.9 198C290.7 181.6 262.5 172.9 233.3 172.9H128.7L10 209.2V214H16C18.8 214 21 216.2 21 219V262C21 264.8 18.8 267 16 267H10V294.3L25 314H50.6V324H22.5C20.9 324 19.5 323.3 18.5 322L1 299C0.3 298.1 0 297.1 0 296V262C0 259.2 2.2 257 5 257H11V224H5C2.2 224 0 221.8 0 219V205.5C0 203.3 1.4 201.4 3.5 200.7L126.5 163.2C127 163.1 127.5 163 128 163H233.3C264.5 163 294.7 172.3 320.5 189.8L363.5 219H404.2C433.8 219 463.2 228.8 486.9 246.6L510 263.9C511.9 265.3 512.5 267.8 511.6 269.9L500 296.3V319C500 321.8 497.8 324 495 324Z" fill="#10121B"/>
<path d="M303.2 314H374.8V324H303.2V314ZM135.5 314H283.2V324H135.5V314ZM37.7 267H16C13.2 267 11 264.8 11 262V219C11 216.2 13.2 214 16 214H37.8C39.8 214 41.6 215.2 42.4 217L52.9 241.5C53.5 242.9 53.4 244.6 52.7 245.9L42.2 264.4C41.2 266 39.5 267 37.7 267ZM21 257H34.8L42.6 243.2L34.5 224H21V257ZM331 227H256C255.7 227 255.5 227 255.2 226.9L154.7 211.4L156.2 201.5L256.4 217H315.4L311.3 214.1C286.5 196.4 257.3 187 226.8 187H137.7L111.5 194.7L136.3 198.5L134.8 208.4L87.8 201.2C85.5 200.8 83.7 198.9 83.6 196.6C83.4 194.3 84.9 192.1 87.2 191.5L135.7 177.3C136.2 177.2 136.6 177.1 137.1 177.1H226.9C259.5 177.1 290.7 187.1 317.2 206L334 218C335.8 219.3 336.5 221.5 335.9 223.6C335.1 225.6 333.2 227 331 227Z" fill="#10121B"/>
<path d="M195.2 217.7C194.9 217.7 194.7 217.7 194.4 217.6L174 214.5C171.6 214.1 169.8 212 169.8 209.6V182C169.8 179.2 172 177 174.8 177H195.2C198 177 200.2 179.2 200.2 182V212.6C200.2 214.1 199.6 215.4 198.5 216.4C197.6 217.2 196.4 217.7 195.2 217.7ZM179.8 205.2L190.2 206.8V187H179.8V205.2ZM356.2 300.2L193.6 290.5C192.2 290.4 190.9 289.7 190 288.6L159.1 249.6C158.1 248.4 157.8 246.8 158.2 245.3C158.6 243.8 159.6 242.6 161 241.9L193.3 227.4C194.2 227 195.1 226.9 196.1 227L354.5 251L353 260.9L196 237.2L171 248.4L196.5 280.6L356.9 290.2L356.2 300.2ZM476 263H507V273H476V263Z" fill="#10121B"/>
</g>
<defs>
<clipPath id="clip0_0_3">
<rect width="512" height="512" fill="white"/>
</clipPath>
</defs>
</svg>
